<svg xmlns="http://www.w3.org/2000/svg" viewBox="0 0 522.375 412.7124"><defs><style>.cls-1,.cls-6{fill:#fff;}.cls-1,.cls-2,.cls-4,.cls-6{stroke:#fff;}.cls-1,.cls-2,.cls-3,.cls-4,.cls-5,.cls-6{stroke-miterlimit:10;}.cls-2,.cls-5{fill:#29abe2;}.cls-2{stroke-width:30px;}.cls-3,.cls-4{fill:#eff77c;}.cls-3{stroke:#eff77c;stroke-width:2px;}.cls-4{stroke-width:0.25px;}.cls-5{stroke:#29abe2;}.cls-5,.cls-6{stroke-width:3px;}.cls-7{fill:#999;}</style></defs><title>logo</title><g id="Layer_1" data-name="Layer 1"><path class="cls-1" d="M901.91553,397.2417a69.64524,69.64524,0,0,1,6.7251-16.27734q3.94116-6.627,10.31982-15.231,4.63623-6.39258,7.30518-10.522a42.03939,42.03939,0,0,0,4.40625-9.18506,33.1996,33.1996,0,0,0,1.73925-10.8711v-.11621q0-10.11548-5.15967-15.69629-5.16136-5.58031-14.43652-5.58056-9.39184,0-14.55176,6.918-5.16137,6.91845-5.27588,19.59082v.11621H868.98486V340.271q.46216-15.34717,5.79737-26.21827a38.25976,38.25976,0,0,1,14.958-16.56787q9.62329-5.69531,22.84278-5.69726,13.7981,0,23.65478,5.11572a34.73823,34.73823,0,0,1,15.01563,14.82422q5.15844,9.709,5.16015,23.42773v.11621a48.22109,48.22109,0,0,1-2.145,14.88233,51.22939,51.22939,0,0,1-5.21826,11.51025q-3.07325,4.88305-8.40625,11.85938a159.05054,159.05054,0,0,0-9.39258,13.19629,57.22471,57.22471,0,0,0-6.02929,13.83593,64.80878,64.80878,0,0,0-2.43506,18.66065h-23.6543A79.39745,79.39745,0,0,1,901.91553,397.2417Zm-3.3628,40.46094h24.814V462.584h-24.814Z" transform="translate(-632.625 -291.2876)"/><path class="cls-2" d="M1140,605.18123C1140,651.47432,1108.554,689,1069.76106,689H717.86394C679.071,689,647.625,651.47432,647.625,605.18123s31.446-83.81877,70.23894-83.81877a59.57115,59.57115,0,0,1,14.04076,1.67637c16.06365-30.225,44.35591-50.29126,76.56748-50.29126a76.81057,76.81057,0,0,1,20.91015,2.89176C849.288,447.71091,878.94293,430,912.07463,430c31.9868,0,60.73559,16.51231,80.59215,42.78108,30.70849.90526,57.631,20.0411,73.44892,48.69035,1.20808-.07546,2.4232-.109,3.64536-.109C1108.554,521.36246,1140,558.88809,1140,605.18123Z" transform="translate(-632.625 -291.2876)"/></g><g id="text"><circle class="cls-3" cx="433.14936" cy="307.35179" r="20"/><rect class="cls-4" x="431.875" y="269.2124" width="3" height="11" rx="1.5"/><rect class="cls-4" x="1054.5" y="562.5" width="3" height="11" rx="1.5" transform="translate(-770.09959 161.0474) rotate(-22.73936)"/><rect class="cls-4" x="1045.5" y="566.5" width="3" height="11" rx="1.5" transform="translate(-755.84245 513.05725) rotate(-39.87873)"/><rect class="cls-4" x="1039.5" y="574.5" width="3" height="11" rx="1.5" transform="translate(-588.29082 941.96445) rotate(-62.36699)"/><rect class="cls-4" x="1035.5" y="582.5" width="3" height="11" rx="1.5" transform="translate(-426.23819 1151.81165) rotate(-75.38631)"/><rect class="cls-4" x="1074.5" y="561.5" width="3" height="11" rx="1.5" transform="translate(-362.23804 -635.46959) rotate(20.73173)"/><rect class="cls-4" x="1084.5" y="566.5" width="3" height="11" rx="1.5" transform="translate(-29.43385 -847.77137) rotate(39.06096)"/><path class="cls-4" d="M1093,574.5h0a1.5,1.5,0,0,1,1.5,1.5v8a1.5,1.5,0,0,1-1.5,1.5h0a1.5,1.5,0,0,1-1.5-1.5v-8a1.5,1.5,0,0,1,1.5-1.5Z" transform="translate(291.19377 -937.02277) rotate(54.1888)"/><rect class="cls-4" x="1095.5" y="584.5" width="3" height="11" rx="1.5" transform="translate(766.81436 -909.60851) rotate(75.77955)"/><rect class="cls-4" x="1096.5" y="595.5" width="3" height="11" rx="1.5" transform="translate(1364.77638 -560.85187) rotate(107.23893)"/><rect class="cls-4" x="1092.5" y="604.5" width="3" height="11" rx="1.5" transform="translate(1536.6505 -323.71938) rotate(120)"/><rect class="cls-4" x="1087.5" y="611.5" width="3" height="11" rx="1.5" transform="translate(1621.69076 -131.06892) rotate(129.06098)"/><circle class="cls-5" cx="404.875" cy="329.2124" r="20"/><path class="cls-6" d="M702.40771,594.36328h3.68653l7.33642,25.87891,10.29493-25.87891h.74511l10.17578,25.87891,7.46143-25.87891h3.65918l-10.31934,35.91309h-.6665L724.124,603.10352l-10.86425,27.17285h-.67041Z" transform="translate(-632.625 -291.2876)"/><path class="cls-6" d="M774.23389,621.46289l2.88086,1.51367a15.69939,15.69939,0,0,1-3.27442,4.49219,13.01733,13.01733,0,0,1-4.17871,2.60059,14.584,14.584,0,0,1-5.25391.89062q-6.50023,0-10.16552-4.25976a14.37349,14.37349,0,0,1-3.66553-9.63184,14.201,14.201,0,0,1,3.103-9.00879,12.68865,12.68865,0,0,1,10.53222-5.0293,13.10639,13.10639,0,0,1,10.84961,5.15137,14.38781,14.38781,0,0,1,2.93213,9.082H754.09229a10.81461,10.81461,0,0,0,2.95751,7.58789,9.43416,9.43416,0,0,0,7.06446,2.959,11.365,11.365,0,0,0,3.94726-.70508,10.39052,10.39052,0,0,0,3.26319-1.873A15.92672,15.92672,0,0,0,774.23389,621.46289Zm0-7.15332a11.33808,11.33808,0,0,0-1.99219-4.37012,9.44172,9.44172,0,0,0-3.459-2.63672,10.6,10.6,0,0,0-4.522-1.001,9.74042,9.74042,0,0,0-6.72217,2.51465,11.358,11.358,0,0,0-3.10449,5.49316Z" transform="translate(-632.625 -291.2876)"/><path class="cls-6" d="M810.83057,603.71387v26.5625h-3.36914v-4.56543a14.64513,14.64513,0,0,1-4.82178,3.93066,13.46894,13.46894,0,0,1-15.47852-2.77148,13.70923,13.70923,0,0,1-3.9917-9.94824,13.46287,13.46287,0,0,1,4.02832-9.81446,13.13557,13.13557,0,0,1,9.69239-4.07715,12.53468,12.53468,0,0,1,5.92041,1.39161,13.47856,13.47856,0,0,1,4.65088,4.1748v-4.88281Zm-13.65967,2.6123a10.30845,10.30845,0,0,0-9.1084,5.34082,10.76263,10.76263,0,0,0,.01221,10.72949,10.4753,10.4753,0,0,0,3.86523,3.98731,10.09839,10.09839,0,0,0,5.20654,1.42676,10.67592,10.67592,0,0,0,5.31592-1.41407,9.89064,9.89064,0,0,0,3.86524-3.8291,10.92613,10.92613,0,0,0,1.35351-5.43847,10.56912,10.56912,0,0,0-3.03613-7.70508A10.05771,10.05771,0,0,0,797.1709,606.32617Z" transform="translate(-632.625 -291.2876)"/><path class="cls-6" d="M821.49951,593.85059h3.418v9.86328h5.41992v2.9541h-5.41992v23.6084h-3.418V606.668h-4.66308v-2.9541h4.66308Z" transform="translate(-632.625 -291.2876)"/><path class="cls-6" d="M835.46436,593.46h3.418v15.01465a14.548,14.548,0,0,1,4.56543-4.08984,11.11981,11.11981,0,0,1,5.39551-1.3545,9.42069,9.42069,0,0,1,5.28565,1.51368,9.02554,9.02554,0,0,1,3.40576,4.06543q1.09863,2.55176,1.09863,7.99511v13.67188h-3.418v-12.6709a32.4009,32.4009,0,0,0-.36621-6.12793,6.95,6.95,0,0,0-2.30713-3.96777,6.832,6.832,0,0,0-4.38232-1.33008,8.42744,8.42744,0,0,0-5.5542,2.05078,9.60862,9.60862,0,0,0-3.23486,5.07812,35.09163,35.09163,0,0,0-.48829,7.22657v9.74121h-3.418Z" transform="translate(-632.625 -291.2876)"/><path class="cls-6" d="M888.3208,621.46289l2.88086,1.51367a15.69918,15.69918,0,0,1-3.27441,4.49219,13.01744,13.01744,0,0,1-4.17871,2.60059,14.584,14.584,0,0,1-5.25391.89062q-6.50025,0-10.16553-4.25976a14.37349,14.37349,0,0,1-3.66553-9.63184,14.201,14.201,0,0,1,3.103-9.00879,12.68867,12.68867,0,0,1,10.53223-5.0293,13.10639,13.10639,0,0,1,10.84961,5.15137,14.38792,14.38792,0,0,1,2.93213,9.082H868.1792a10.81458,10.81458,0,0,0,2.95752,7.58789,9.43414,9.43414,0,0,0,7.06445,2.959,11.36506,11.36506,0,0,0,3.94727-.70508,10.39046,10.39046,0,0,0,3.26318-1.873A15.92646,15.92646,0,0,0,888.3208,621.46289Zm0-7.15332a11.33778,11.33778,0,0,0-1.99219-4.37012,9.44176,9.44176,0,0,0-3.459-2.63672,10.6,10.6,0,0,0-4.522-1.001,9.7404,9.7404,0,0,0-6.72217,2.51465,11.358,11.358,0,0,0-3.10449,5.49316Z" transform="translate(-632.625 -291.2876)"/><path class="cls-6" d="M897.15869,603.71387h3.49121v3.88183a12.24577,12.24577,0,0,1,3.2959-3.42968,6.49254,6.49254,0,0,1,3.61328-1.13575,6.24193,6.24193,0,0,1,3.02735.90332l-1.78223,2.88086a4.76661,4.76661,0,0,0-1.80664-.46386,4.94127,4.94127,0,0,0-3.2959,1.40332,8.877,8.877,0,0,0-2.417,4.35839q-.635,2.27052-.63477,9.17969v8.98438h-3.49121Z" transform="translate(-632.625 -291.2876)"/><path class="cls-6" d="M961.34375,601.02832l-2.83252,2.17285a15.49916,15.49916,0,0,0-5.62744-4.627A16.48111,16.48111,0,0,0,945.66943,597a15.94711,15.94711,0,0,0-7.959,2.0625,14.8068,14.8068,0,0,0-5.67627,5.543,15.32743,15.32743,0,0,0-2.01416,7.82422,14.68821,14.68821,0,0,0,4.50439,10.96191,15.61113,15.61113,0,0,0,11.36475,4.39453,15.97906,15.97906,0,0,0,12.62207-5.9082l2.83252,2.14844a18.08985,18.08985,0,0,1-6.70215,5.28515,21.0113,21.0113,0,0,1-8.97217,1.86817q-9.42407,0-14.86816-6.27442a18.9314,18.9314,0,0,1-4.56543-12.793,17.78622,17.78622,0,0,1,5.52979-13.26855,19.06106,19.06106,0,0,1,13.855-5.38379,20.33773,20.33773,0,0,1,9.082,1.98926A17.64484,17.64484,0,0,1,961.34375,601.02832Z" transform="translate(-632.625 -291.2876)"/><path class="cls-6" d="M967.4707,593.46h3.418v36.81641h-3.418Z" transform="translate(-632.625 -291.2876)"/><path class="cls-6" d="M990.56641,603.03027a13.158,13.158,0,0,1,10.1748,4.44336,14.26118,14.26118,0,0,1-.208,19.32422,14.04262,14.04262,0,0,1-19.957,0,14.23005,14.23005,0,0,1-.208-19.2998A13.15008,13.15008,0,0,1,990.56641,603.03027Zm-.01172,3.34473a9.863,9.863,0,0,0-7.32617,3.14941,10.52943,10.52943,0,0,0-3.0625,7.61719,10.80518,10.80518,0,0,0,1.39648,5.3711,9.91,9.91,0,0,0,3.77344,3.8457,10.731,10.731,0,0,0,10.4375,0,9.91008,9.91008,0,0,0,3.77344-3.8457,10.81544,10.81544,0,0,0,1.39648-5.3711,10.50234,10.50234,0,0,0-3.07617-7.61719A9.86894,9.86894,0,0,0,990.55469,606.375Z" transform="translate(-632.625 -291.2876)"/><path class="cls-6" d="M1024.08789,606.61914l-2.19726,2.27051q-2.74219-2.66163-5.36133-2.66113a4.05059,4.05059,0,0,0-2.85157,1.09863,3.39437,3.39437,0,0,0-1.1875,2.56348,3.797,3.797,0,0,0,.97852,2.46582,13.74972,13.74972,0,0,0,4.11133,2.80761,15.35446,15.35446,0,0,1,5.18652,3.8086,6.94232,6.94232,0,0,1,1.34473,4.1748,7.48957,7.48957,0,0,1-2.29883,5.542,7.84349,7.84349,0,0,1-5.74512,2.27051,10.051,10.051,0,0,1-4.38965-1.001,9.51923,9.51923,0,0,1-3.459-2.75878l2.14844-2.44141q2.61766,2.9546,5.55469,2.9541a5.00443,5.00443,0,0,0,3.499-1.31836,4.07485,4.07485,0,0,0,1.44433-3.10058,3.972,3.972,0,0,0-.95507-2.61231,15.35437,15.35437,0,0,0-4.30567-2.832,13.794,13.794,0,0,1-4.89355-3.66211,6.8993,6.8993,0,0,1-1.29688-4.126,6.7127,6.7127,0,0,1,2.06641-5.02929,7.19879,7.19879,0,0,1,5.22168-2.002Q1020.37012,603.03027,1024.08789,606.61914Z" transform="translate(-632.625 -291.2876)"/><path class="cls-6" d="M1052.50586,621.46289l2.88086,1.51367a15.71031,15.71031,0,0,1-3.27539,4.49219,13.01824,13.01824,0,0,1-4.17774,2.60059,14.58952,14.58952,0,0,1-5.2539.89062q-6.501,0-10.166-4.25976a14.37641,14.37641,0,0,1-3.666-9.63184,14.20425,14.20425,0,0,1,3.10351-9.00879,12.688,12.688,0,0,1,10.53223-5.0293,13.10639,13.10639,0,0,1,10.84961,5.15137,14.39111,14.39111,0,0,1,2.93262,9.082h-23.90235a10.81494,10.81494,0,0,0,2.958,7.58789,9.43414,9.43414,0,0,0,7.06445,2.959,11.36506,11.36506,0,0,0,3.94727-.70508,10.38788,10.38788,0,0,0,3.26269-1.873A15.92593,15.92593,0,0,0,1052.50586,621.46289Zm0-7.15332a11.3594,11.3594,0,0,0-1.99219-4.37012,9.45392,9.45392,0,0,0-3.459-2.63672,10.60378,10.60378,0,0,0-4.52246-1.001,9.73747,9.73747,0,0,0-6.72168,2.51465,11.36655,11.36655,0,0,0-3.10547,5.49316Z" transform="translate(-632.625 -291.2876)"/><path class="cls-6" d="M1065.61523,593.85059h3.418v9.86328h5.41993v2.9541h-5.41993v23.6084h-3.418V606.668h-4.6621v-2.9541h4.6621Z" transform="translate(-632.625 -291.2876)"/><polygon class="cls-7" points="431.875 328.212 431.747 317.213 431.875 317.34 426.875 317.361 426.727 317.362 426.726 317.212 426.701 311.213 426.7 311.039 426.875 311.038 431.875 311.017 431.68 311.212 431.638 301.213 431.637 300.976 431.875 300.976 437.875 300.974 438.114 300.974 438.113 301.213 438.071 311.212 437.875 311.017 442.875 311.038 443.05 311.038 443.05 311.213 443.024 317.212 443.024 317.362 442.875 317.362 437.875 317.341 438.003 317.213 437.875 328.212 437.747 317.213 437.745 317.085 437.875 317.084 442.875 317.063 442.726 317.212 442.7 311.213 442.875 311.387 437.875 311.408 437.68 311.409 437.679 311.212 437.637 301.213 437.875 301.45 431.875 301.449 432.112 301.213 432.07 311.212 432.069 311.408 431.875 311.407 426.875 311.386 427.049 311.213 427.024 317.212 426.875 317.063 431.875 317.084 432.005 317.085 432.003 317.213 431.875 328.212"/></g></svg>